<svg width="140" height="38" viewBox="0 0 140 38" fill="none" xmlns="http://www.w3.org/2000/svg">
<g clip-path="url(#clip0_3713_10156)">
<path fill-rule="evenodd" clip-rule="evenodd" d="M57.4136 38C42.4456 33.3089 38.3285 21.2347 38.6175 11.7139C38.8432 4.30317 44.4329 -0.0593728 57.4136 8.36892e-06C70.3944 -0.0633316 75.9841 4.30317 76.2098 11.7139C76.5027 21.2347 72.3817 33.3049 57.4136 38Z" fill="url(#paint0_linear_3713_10156)"/>
<path opacity="0.4" fill-rule="evenodd" clip-rule="evenodd" d="M38.855 16.5278C42.0695 18.2023 49.1715 19.3622 57.4136 19.3622C65.6557 19.3622 72.7537 18.1984 75.9722 16.5278C74.8677 24.9718 69.943 34.0729 57.4136 38C44.8841 34.0729 39.9595 24.9718 38.855 16.5278V16.5278Z" fill="#ADC4FF"/>
<path fill-rule="evenodd" clip-rule="evenodd" d="M57.4137 36.0563C63.0431 34.1838 67.853 30.8941 70.9487 25.716C73.4427 21.5395 74.5116 16.6069 74.3611 11.7694C74.3136 10.2136 73.993 8.67758 73.2091 7.32368C70.3668 2.41088 62.4057 1.82499 57.4217 1.84478H57.4058C52.4218 1.82103 44.4568 2.41088 41.6184 7.32368C40.8306 8.68153 40.5139 10.2136 40.4664 11.7694C40.3199 16.6069 41.3848 21.5395 43.8828 25.716C46.9745 30.8901 51.7884 34.1798 57.4177 36.0563H57.4137Z" fill="url(#paint1_linear_3713_10156)"/>
<path fill-rule="evenodd" clip-rule="evenodd" d="M57.4136 36.0562C63.043 34.1837 67.8529 30.894 70.9486 25.7159C71.0238 25.5893 71.099 25.4586 71.1742 25.328V25.3201C71.2455 25.1973 71.3168 25.0746 71.3841 24.9519L71.4078 24.9084C71.4712 24.7856 71.5384 24.6669 71.6018 24.5442L71.6176 24.5164C71.681 24.3898 71.7443 24.2631 71.8076 24.1364L71.8195 24.1166L71.8789 23.9899L71.8947 23.9543L71.9264 23.887L71.9977 23.7405L72.0135 23.7089L72.0254 23.6811L72.1006 23.5188L72.1085 23.503L72.1164 23.4872L72.1837 23.3328L72.2193 23.2576L72.2273 23.2338L72.2827 23.1032L72.3302 22.9884L72.3381 22.9686L72.3896 22.8458L72.445 22.7152L72.4529 22.7033L72.4925 22.6083L72.5083 22.5648C72.5558 22.4421 72.6073 22.3193 72.6548 22.1966L72.7063 22.066C72.7379 21.9749 72.7696 21.8918 72.8013 21.8047L72.8488 21.6701L72.8923 21.5395L72.9359 21.4088C72.9676 21.3217 72.9953 21.2307 73.0269 21.1436L73.0705 21.009C73.4624 19.8134 73.7593 18.5862 73.9731 17.3392C70.2716 18.5625 64.2266 19.3622 57.4057 19.3622C50.5848 19.3622 44.5398 18.5664 40.8384 17.3392C40.9294 17.8935 41.0442 18.4398 41.1709 18.9861V18.99C41.2422 19.279 41.3134 19.564 41.3926 19.8491L41.4045 19.8847C41.4797 20.1697 41.5628 20.4548 41.6539 20.7358V20.7398C41.741 21.0209 41.836 21.3019 41.935 21.579L41.9468 21.6147L42.0102 21.7968L42.0181 21.8166L42.0577 21.9274L42.0695 21.963L42.1052 22.0581L42.1566 22.1927L42.1646 22.2125L42.2002 22.3075L42.216 22.351L42.2833 22.5173L42.3387 22.6519L42.3467 22.6717L42.4179 22.8458L42.4535 22.929L42.505 23.0477L42.5208 23.0834L42.5288 23.0953L42.6079 23.2734L42.6198 23.3051C42.7109 23.503 42.8019 23.7049 42.8969 23.9028L42.9048 23.9187L42.9999 24.1126C43.1305 24.3858 43.273 24.655 43.4155 24.9242C43.4868 25.0548 43.558 25.1855 43.6333 25.3161V25.324C43.7124 25.4547 43.7876 25.5853 43.8668 25.712C46.9586 30.8861 51.7724 34.1758 57.4018 36.0522L57.4136 36.0562Z" fill="url(#paint2_linear_3713_10156)"/>
<path d="M5.57391 17.6718V16.9434C5.57391 16.5871 5.4987 16.2902 5.35222 16.0488C5.20179 15.8073 4.97614 15.6846 4.67924 15.6846C4.32295 15.6846 4.05376 15.8231 3.87561 16.1002C3.69747 16.3773 3.58662 16.7099 3.54704 17.0939L0.534431 16.4723C0.720492 15.4906 1.23117 14.7384 2.07042 14.2119C2.82654 13.7408 3.73706 13.5072 4.80592 13.5072C5.98562 13.5072 6.9476 13.7487 7.68788 14.2357C8.58652 14.8176 9.03386 15.6687 9.03386 16.7772V22.7549C9.03386 23.2972 9.06553 23.6931 9.12887 23.9425C9.19221 24.1919 9.26742 24.374 9.35452 24.4888H5.78769C5.75997 24.3621 5.73622 24.2077 5.72435 24.0296C5.70851 23.8514 5.69268 23.6733 5.6808 23.5031C5.35222 23.891 4.96823 24.1879 4.52485 24.4096C4.08543 24.6313 3.5985 24.7382 3.07199 24.7382C2.11793 24.7382 1.36973 24.4492 0.81946 23.8752C0.273153 23.2972 0 22.4936 0 21.4524C0 20.1421 0.633399 19.1524 1.9002 18.4873C2.92551 17.945 4.14877 17.6758 5.57391 17.6758V17.6718ZM5.57391 21.7494V19.3345C4.82175 19.4058 4.2992 19.5483 4.01417 19.7621C3.64205 20.0313 3.45994 20.538 3.45994 21.2783C3.45994 22.0185 3.79248 22.4303 4.46546 22.4303C4.62381 22.4303 4.79404 22.3788 4.98802 22.2719C5.17804 22.165 5.37598 21.9908 5.57391 21.7454V21.7494ZM10.8707 13.7646H14.3307V21.3456C14.3307 21.9869 14.6078 22.3075 15.166 22.3075C15.3797 22.3075 15.5737 22.2561 15.7439 22.1571C15.9142 22.0581 16.0844 21.8721 16.2546 21.6029V13.7646H19.7146V24.4848H16.2546V23.0518C15.4589 24.1761 14.4257 24.7382 13.1589 24.7382C12.4463 24.7382 11.8881 24.5205 11.4843 24.089C11.0766 23.6535 10.8747 23.0676 10.8747 22.3273V13.7646H10.8707ZM21.6543 16.1992H20.245V13.7646H21.6543V9.92062H25.1143V13.7646H27.0145V16.1992H25.1143V20.7478C25.1143 21.2308 25.1578 21.5435 25.241 21.686C25.3835 21.9275 25.7121 22.0502 26.2227 22.0502C26.4919 22.0502 26.7572 22.0146 27.0145 21.9433V24.4651C26.6859 24.5482 26.3059 24.6155 25.8704 24.667C25.4389 24.7145 25.0034 24.7422 24.5799 24.7422C23.61 24.7422 22.8816 24.5284 22.3907 24.1009C21.8998 23.6733 21.6543 22.9845 21.6543 22.0304V16.1992V16.1992ZM27.5054 19.0812C27.5054 17.4027 27.9012 16.0686 28.7009 15.0868C29.556 14.0338 30.7674 13.5033 32.335 13.5033C33.9027 13.5033 35.0864 14.0298 35.9415 15.0868C36.753 16.0804 37.1568 17.4145 37.1568 19.0812C37.1568 20.7478 36.7649 22.1769 35.985 23.1587C35.1457 24.2157 33.9264 24.7382 32.335 24.7382C30.7436 24.7382 29.5204 24.2117 28.6811 23.1587C27.8973 22.1769 27.5093 20.819 27.5093 19.0812H27.5054ZM31.092 19.0812C31.092 20.3915 31.187 21.2981 31.381 21.8048C31.571 22.3115 31.8917 22.5649 32.3311 22.5649C32.7705 22.5649 33.0872 22.3155 33.2812 21.8167C33.4712 21.3179 33.5702 20.4073 33.5702 19.0851C33.5702 17.7629 33.487 16.8999 33.3247 16.413C33.1624 15.93 32.8299 15.6885 32.335 15.6885C31.8639 15.6885 31.5393 15.9379 31.3612 16.4328C31.183 16.9316 31.0959 17.8144 31.0959 19.0812H31.092ZM82.0608 13.2974V14.7899C82.8922 13.6181 83.969 13.0282 85.2912 13.0282C85.885 13.0282 86.4075 13.1905 86.8588 13.5191C87.3141 13.8477 87.5397 14.2713 87.5397 14.7899C88.3711 13.6181 89.4479 13.0282 90.7701 13.0282C91.5302 13.0282 92.1358 13.2301 92.599 13.63C93.0582 14.0298 93.2878 14.6276 93.2878 15.4154V24.4848H89.6775V16.5753C89.6775 15.9062 89.3885 15.5737 88.8105 15.5737C88.6046 15.5737 88.4067 15.6252 88.2206 15.7321C88.0346 15.835 87.8525 16.029 87.6743 16.31V24.4888H84.064V16.5792C84.064 15.9102 83.775 15.5777 83.193 15.5777C82.9713 15.5777 82.7734 15.6291 82.5992 15.736C82.429 15.8389 82.2469 16.0329 82.0569 16.314V24.4928H78.4465V13.3053H82.0569L82.0608 13.2974ZM100.267 17.3749V16.6188C100.267 16.2467 100.188 15.9379 100.034 15.6846C99.8792 15.4312 99.6416 15.3045 99.3328 15.3045C98.9607 15.3045 98.6836 15.451 98.4975 15.74C98.3115 16.029 98.1967 16.3734 98.1531 16.7772L95.0099 16.1319C95.2039 15.1066 95.7383 14.3188 96.6171 13.7725C97.4049 13.2816 98.355 13.0362 99.4714 13.0362C100.707 13.0362 101.708 13.2895 102.48 13.7923C103.414 14.4019 103.885 15.2847 103.885 16.4446V22.6836C103.885 23.2458 103.921 23.6575 103.988 23.9187C104.052 24.18 104.131 24.3661 104.218 24.4888H100.501C100.469 24.3542 100.449 24.1959 100.433 24.0098C100.418 23.8237 100.406 23.6416 100.39 23.4635C100.045 23.8633 99.6495 24.18 99.1864 24.4096C98.7272 24.6392 98.2204 24.758 97.6702 24.758C96.6726 24.758 95.8927 24.4571 95.3187 23.8554C94.7486 23.2537 94.4636 22.4105 94.4636 21.3258C94.4636 19.96 95.1247 18.9268 96.4469 18.23C97.5197 17.6639 98.7945 17.3829 100.279 17.3829L100.267 17.3749ZM100.267 21.6346V19.1128C99.4793 19.188 98.937 19.3345 98.6401 19.5602C98.2521 19.8412 98.0621 20.3717 98.0621 21.1437C98.0621 21.9156 98.4105 22.3432 99.1112 22.3432C99.2735 22.3432 99.4556 22.2877 99.6575 22.1769C99.8554 22.0661 100.061 21.884 100.271 21.6346H100.267ZM110.829 21.5197C110.829 21.0289 110.362 20.6053 109.424 20.249C107.939 19.6829 107.056 19.3068 106.775 19.1089C105.825 18.4873 105.35 17.6164 105.35 16.504C105.35 15.7162 105.671 14.9878 106.308 14.3188C107.124 13.4558 108.252 13.0282 109.697 13.0282C110.675 13.0282 111.53 13.2578 112.262 13.721C113.093 14.2554 113.664 15.0353 113.976 16.0606L111.458 16.7297C111.237 16.2982 111.027 15.9775 110.833 15.7716C110.536 15.4589 110.18 15.3045 109.764 15.3045C109.052 15.3045 108.695 15.542 108.695 16.0171C108.695 16.4921 109.162 16.892 110.101 17.2641C111.573 17.8421 112.456 18.23 112.753 18.424C113.703 19.0455 114.178 19.8848 114.178 20.9418C114.178 22.1294 113.77 23.0597 112.951 23.7366C112.135 24.4136 111.051 24.754 109.697 24.754C108.478 24.754 107.468 24.4651 106.664 23.895C105.861 23.321 105.307 22.5569 104.994 21.587L107.757 20.7201C108.026 21.2545 108.272 21.6346 108.493 21.8562C108.822 22.1809 109.222 22.3471 109.697 22.3471C110.037 22.3471 110.314 22.2759 110.52 22.1254C110.726 21.979 110.833 21.7771 110.833 21.5237L110.829 21.5197ZM115.576 15.8389V21.9235C115.576 22.9172 115.833 23.6416 116.344 24.0811C116.858 24.5284 117.618 24.754 118.628 24.754C119.075 24.754 119.522 24.7263 119.978 24.6749C120.429 24.6234 120.829 24.5521 121.169 24.4611V21.8325C120.904 21.9077 120.627 21.9433 120.346 21.9433C119.811 21.9433 119.467 21.8167 119.321 21.5633C119.233 21.4129 119.186 21.0882 119.186 20.5815V15.835H121.169V13.2935H119.186V9.28326H115.576V13.2935H114.107V15.835H115.576V15.8389ZM131.331 19.6948H125.294C125.294 20.3915 125.381 20.9536 125.56 21.3891C125.825 22.0265 126.28 22.3471 126.917 22.3471C127.349 22.3471 127.729 22.2086 128.065 21.9235C128.398 21.6425 128.624 21.2703 128.742 20.8072L131.169 21.6979C130.904 22.5728 130.358 23.3012 129.53 23.8831C128.707 24.4611 127.761 24.754 126.692 24.754C125.073 24.754 123.81 24.1602 122.903 22.9686C122.088 21.884 121.676 20.5182 121.676 18.8674C121.676 17.2166 122.084 15.8231 122.903 14.7701C123.794 13.6102 125.045 13.0322 126.644 13.0322C128.244 13.0322 129.459 13.6498 130.278 14.8809C130.975 15.9379 131.323 17.2878 131.323 18.9386V19.6987L131.331 19.6948ZM125.294 17.5531H127.99C127.99 16.6624 127.875 16.0646 127.646 15.7598C127.416 15.4549 127.08 15.3045 126.632 15.3045C126.185 15.3045 125.833 15.5262 125.619 15.9735C125.401 16.4209 125.294 16.9474 125.294 17.5531ZM136.236 13.2974V14.9918C136.458 14.3386 136.897 13.8477 137.551 13.5231C138.204 13.1945 138.916 13.0322 139.688 13.0322V16.6861C139.391 16.5832 139.134 16.504 138.92 16.4526C138.703 16.4011 138.473 16.3734 138.22 16.3734C137.653 16.3734 137.238 16.4407 136.969 16.5753C136.703 16.7099 136.458 16.9316 136.232 17.2443V24.4848H132.622V13.2974H136.232H136.236Z" fill="url(#paint3_linear_3713_10156)"/>
<path d="M48.7004 15.7834V20.8862C48.7004 21.3533 48.8073 21.7056 49.0171 21.9432C49.2309 22.1846 49.508 22.3034 49.8564 22.3034C50.3077 22.3034 50.6046 22.0738 50.7511 21.6146C50.8975 21.1554 50.9688 20.3834 50.9688 19.2908V18.4634C50.9688 17.2125 50.9173 16.389 50.8144 15.9971C50.6679 15.431 50.3592 15.146 49.8762 15.146C49.6862 15.146 49.4843 15.2093 49.2665 15.3321C49.0488 15.4548 48.8588 15.6052 48.7004 15.7794V15.7834ZM45.1653 24.4015V8.86743H48.7004V14.0811C48.9459 13.8357 49.2824 13.6258 49.7139 13.4517C50.1414 13.2775 50.5333 13.1904 50.8817 13.1904C52.0733 13.1904 52.9957 13.7129 53.6528 14.762C54.306 15.8071 54.6346 17.1531 54.6346 18.796C54.6346 20.2647 54.3337 21.5275 53.7399 22.5924C53.0155 23.8909 51.9743 24.5361 50.6204 24.5361C49.9672 24.5361 49.3972 24.3897 48.9182 24.1007C48.4352 23.8117 48.0156 23.3881 47.6514 22.8339L46.9982 24.4055H45.1653V24.4015ZM59.3455 13.4517V24.4015H55.8143V13.4517H59.3455ZM55.8143 12.0107V8.87139H59.3455V12.0107H55.8143ZM69.9945 8.87139V24.4015H66.6573V23.3327C66.1189 23.8275 65.6676 24.1521 65.3034 24.3026C64.9392 24.457 64.48 24.5322 63.9258 24.5322C62.8213 24.5322 61.9622 24.0175 61.3526 22.9843C60.7984 22.054 60.5252 20.8387 60.5252 19.3383C60.5252 17.5767 60.7786 16.203 61.2893 15.2173C61.8989 14.0376 62.853 13.4517 64.1475 13.4517C65.0501 13.4517 65.822 13.7684 66.4594 14.4097V8.86743H69.9945V8.87139ZM66.4594 21.6106V15.918C66.2258 15.5854 65.8577 15.4152 65.347 15.4152C64.8798 15.4152 64.5711 15.7002 64.4167 16.2663C64.2662 16.8324 64.1871 17.6638 64.1871 18.7564C64.1871 19.849 64.2029 20.6091 64.2306 20.9139C64.3335 21.9313 64.6463 22.442 65.1688 22.442C65.7349 22.442 66.1664 22.1649 66.4554 21.6106H66.4594Z" fill="url(#paint4_linear_3713_10156)"/>
<path fill-rule="evenodd" clip-rule="evenodd" d="M45.1653 18.3407C46.2658 18.5307 47.4495 18.6969 48.7004 18.8355V20.8861C48.7004 21.3533 48.8073 21.7056 49.0171 21.9431C49.2309 22.1846 49.508 22.3034 49.8564 22.3034C50.3077 22.3034 50.6046 22.0737 50.7511 21.6145C50.8975 21.1553 50.9688 20.3834 50.9688 19.2908V19.0453C52.1446 19.1364 53.3678 19.1997 54.6227 19.2393C54.5713 20.518 54.2744 21.6343 53.7399 22.5844C53.0155 23.8829 51.9743 24.5282 50.6204 24.5282C49.9672 24.5282 49.3972 24.3817 48.9182 24.0927C48.4352 23.8037 48.0156 23.3801 47.6514 22.8259L46.9982 24.3975H45.1653V18.3407V18.3407ZM55.8143 19.267C56.2814 19.2749 56.7565 19.2789 57.2315 19.2789C57.9441 19.2789 58.6488 19.271 59.3455 19.2512V24.3975H55.8143V19.267V19.267ZM60.5252 19.2155C61.7881 19.1641 63.0153 19.0889 64.191 18.9859C64.191 19.9835 64.2069 20.6209 64.2346 20.9059C64.3375 21.9233 64.6502 22.434 65.1728 22.434C65.7389 22.434 66.1704 22.1569 66.4594 21.6027V18.7524C67.7183 18.6019 68.9019 18.4198 69.9945 18.2061V24.3936H66.6573V23.3247C66.1189 23.8196 65.6676 24.1442 65.3034 24.2946C64.9392 24.449 64.48 24.5242 63.9258 24.5242C62.8213 24.5242 61.9622 24.0096 61.3526 22.9763C60.7984 22.046 60.5252 20.8307 60.5252 19.3303V19.2116V19.2155Z" fill="url(#paint5_linear_3713_10156)"/>
</g>
<defs>
<linearGradient id="paint0_linear_3713_10156" x1="57.4138" y1="-0.000671387" x2="57.4138" y2="38" gradientUnits="userSpaceOnUse">
<stop stop-color="#0516FF"/>
<stop offset="1" stop-color="#1357FF"/>
</linearGradient>
<linearGradient id="paint1_linear_3713_10156" x1="65.5331" y1="28.6257" x2="51.2975" y2="3.96667" gradientUnits="userSpaceOnUse">
<stop stop-color="#E4EDFF"/>
<stop offset="0.8" stop-color="white"/>
<stop offset="1" stop-color="white"/>
</linearGradient>
<linearGradient id="paint2_linear_3713_10156" x1="66.012" y1="33.7957" x2="51.7328" y2="9.0615" gradientUnits="userSpaceOnUse">
<stop stop-color="#C5D8FF"/>
<stop offset="0.7" stop-color="white"/>
<stop offset="1" stop-color="white"/>
</linearGradient>
<linearGradient id="paint3_linear_3713_10156" x1="69.8441" y1="9.28326" x2="69.8441" y2="24.758" gradientUnits="userSpaceOnUse">
<stop stop-color="#EBECFF"/>
<stop offset="1" stop-color="white"/>
</linearGradient>
<linearGradient id="paint4_linear_3713_10156" x1="57.5799" y1="24.5322" x2="57.5799" y2="8.86743" gradientUnits="userSpaceOnUse">
<stop stop-color="#4F121B"/>
<stop offset="0.06" stop-color="#66141D"/>
<stop offset="0.16" stop-color="#851820"/>
<stop offset="0.27" stop-color="#9E1B22"/>
<stop offset="0.39" stop-color="#B21D24"/>
<stop offset="0.53" stop-color="#C01E25"/>
<stop offset="0.7" stop-color="#C81F26"/>
<stop offset="1" stop-color="#CB2027"/>
</linearGradient>
<linearGradient id="paint5_linear_3713_10156" x1="-5.05706e-05" y1="17.4737" x2="0.395824" y2="25.2685" gradientUnits="userSpaceOnUse">
<stop stop-color="#4F121B"/>
<stop offset="0.06" stop-color="#66141D"/>
<stop offset="0.16" stop-color="#851820"/>
<stop offset="0.27" stop-color="#9E1B22"/>
<stop offset="0.39" stop-color="#B21D24"/>
<stop offset="0.53" stop-color="#C01E25"/>
<stop offset="0.7" stop-color="#C81F26"/>
<stop offset="1" stop-color="#CB2027"/>
</linearGradient>
<clipPath id="clip0_3713_10156">
<rect width="139.68" height="38" fill="white"/>
</clipPath>
</defs>
</svg>
